<?xml version="1.0" encoding="UTF-8"?><svg id="Camada_2" xmlns="http://www.w3.org/2000/svg" viewBox="0 0 879.33 343.14"><defs><style>.cls-1{fill:none;isolation:isolate;opacity:.6;stroke:#ddd;stroke-miterlimit:10;stroke-width:2px;}</style></defs><g id="background"><path class="cls-1" d="M876.82,257.55h-2.15c-38.89-36.36-137.02-81.63-325.28-81.63-51.93,0-99.89-10.03-146.59-30.66-41.21-18.2-76.34-42.12-110.32-65.27C233.64,39.91,178.06,2.05,101.46,2.05,63.2,2.05,27.08,7.96,1,13.73v-1.14C27.2,6.85,63.27,1,101.46,1c77.45,0,133.31,38.05,192.45,78.31,68.96,46.98,140.28,95.55,255.48,95.55,189.97,0,288.67,45.98,327.43,82.69Z"/><path class="cls-1" d="M856.88,341.61h-2.37c-47.09-33.22-142.97-68.35-308.78-68.35-51.93,0-99.89-10.02-146.6-30.65-41.19-18.2-76.32-42.12-110.31-65.27-58.84-40.08-114.42-77.93-191.02-77.93-36.48,0-71.06,5.38-96.79,10.86v-1.12c25.84-5.48,60.36-10.8,96.79-10.8,77.45,0,133.31,38.03,192.45,78.31,68.96,46.97,140.28,95.54,255.48,95.54,167.55,0,264.08,35.77,311.15,69.4h0Z"/><path class="cls-1" d="M832,341.61h-2.65c-52.41-28.67-143.6-55.05-287.29-55.05-51.95,0-99.89-10.02-146.6-30.65-41.19-18.2-76.32-42.12-110.31-65.27-58.84-40.08-114.44-77.93-191.02-77.93-34.78,0-67.81,4.89-93.12,10.09v-1.12c25.4-5.19,58.38-10.03,93.12-10.03,77.45,0,133.31,38.03,192.45,78.31,68.96,46.97,140.28,95.54,255.48,95.54,145.49,0,237.44,26.98,289.94,56.1h0Z"/><path class="cls-1" d="M801,341.61h-3.06c-54.73-23.03-138.52-41.75-259.56-41.75-51.95,0-99.89-10.02-146.6-30.65-41.19-18.2-76.32-42.13-110.31-65.27-58.84-40.08-114.44-77.93-191.02-77.93-33.13,0-64.66,4.44-89.45,9.37v-1.12c24.88-4.91,56.36-9.3,89.45-9.3,77.45,0,133.31,38.03,192.45,78.31,68.96,46.97,140.28,95.54,255.48,95.54,122.93,0,207.63,19.26,262.62,42.81h0Z"/></g></svg>