<?xml version="1.0" encoding="utf-8"?>
<!-- Generator: Adobe Illustrator 26.4.1, SVG Export Plug-In . SVG Version: 6.00 Build 0)  -->
<svg version="1.1" id="Layer_1" xmlns="http://www.w3.org/2000/svg" xmlns:xlink="http://www.w3.org/1999/xlink" x="0px" y="0px"
	 viewBox="0 0 800 800" style="enable-background:new 0 0 800 800;" xml:space="preserve">
<style type="text/css">
	.st0{fill:none;stroke:#000000;stroke-width:15;stroke-miterlimit:10;}
</style>
<path class="st0" d="M264.5,88.3c57.4,0,104,46.6,104,104s-46.6,104-104,104s-104-46.6-104-104S207,88.3,264.5,88.3z M96.9,478.2
	c0-7.8,5-13.1,13.1-13.1s13.1,5,13.1,13.1v290.6h285.8V478.2c0-7.8,5-13.1,13.1-13.1c7.8,0,13.1,5,13.1,13.1v290.6h90.9V451.9
	c0-71.7-58.6-130-130-130h-26.2l-76.4,118.8l-9.2-89l12.5-30.1h-56.3l12.5,30.1l-9.8,89.5L166.9,322h-30.7c-71.7,0-130,58.6-130,130
	v316.8h90.9V478.2L96.9,478.2L96.9,478.2z M737.5,184.4h56.2v112.5H490.6V184.4h56.2v18.8h37.5v-18.8H700v18.8h37.5V184.4z
	 M793.8,87.5v75H490.6v-75h96.9V31.2H700v56.2H793.8z M612.5,87.5H675V53.1h-62.5V87.5z"/>
</svg>
