<?xml version="1.0" encoding="utf-8"?>
<!-- Generator: Adobe Illustrator 26.4.1, SVG Export Plug-In . SVG Version: 6.00 Build 0)  -->
<svg version="1.1" id="Capa_1" xmlns="http://www.w3.org/2000/svg" xmlns:xlink="http://www.w3.org/1999/xlink" x="0px" y="0px"
	 viewBox="0 0 800 800" style="enable-background:new 0 0 800 800;" xml:space="preserve">
<style type="text/css">
	.st0{fill:none;stroke:#010002;stroke-width:15;stroke-miterlimit:10;}
</style>
<g id="SVGRepo_bgCarrier">
</g>
<g id="SVGRepo_tracerCarrier">
</g>
<g id="SVGRepo_iconCarrier">
	<g>
		<path class="st0" d="M797.3,53.2v319.5c0,9.1-7.4,16.5-16.5,16.5H346.3c-9.1,0-16.5-7.4-16.5-16.5v-25.2l33-22.1v30.9h401.6V69.7
			H362.8v120.6c-1.5,1.1-3,2.1-4.4,3.3l-4.6,3.2c-5.6-14.5-14-26-23.9-35.4V53.2c0-9.1,7.4-16.5,16.5-16.5h434.6
			C790,36.8,797.3,44.1,797.3,53.2z M408.2,269.8l19.7-13.2h0c0-0.1,0.1-0.1,0.1-0.2c10-10,11.6-24.8,5.4-36.4l159.7-108.3
			l-7.2-10.7l-161,109.2c-5-3.7-10.7-6-16.6-6.2c-8.4-0.3-17,2.6-23.5,9c0,0-0.1,0.2-0.2,0.2l-3.9,2.7l-35.8,24.4V230
			c-6.6-79-98.2-77.8-98.2-77.8h-39.6L173.8,207l-33.5-54.8h-38C-1,154.1,2.7,230,2.7,230v177h0.1c0,0.5-0.1,1-0.1,1.4
			c0,16.9,13.6,30.4,30.4,30.4c16.7,0,30.3-13.6,30.3-30.4c0-0.4,0-0.9-0.1-1.4h0.1V243.2h19l-0.2,515.7c0,22.7,18.4,41.1,41,41.1
			c22.7,0,41-18.4,41-41.1V426.1h18.3v333.2l0.3,0.4c0.3,22.3,18.4,40.4,40.8,40.4c22.5,0,40.8-18.3,40.8-40.8l-0.1-516.8h19.8v53.8
			c0,0.1,0,0.2,0,0.3c0,16.7,13.6,30.4,30.3,30.4c4.9,0,9.4-1.4,13.5-3.6l0.1,0.2l52.5-35.2L408.2,269.8z M173.2,139
			c38.4,0,69.5-31.1,69.5-69.5S211.6,0,173.2,0s-69.5,31.1-69.5,69.5S134.8,139,173.2,139z"/>
	</g>
</g>
</svg>
